<svg width="21" height="17" viewBox="0 0 21 17" fill="none" xmlns="http://www.w3.org/2000/svg">
<path fill-rule="evenodd" clip-rule="evenodd" d="M2.30674 1.70641C3.20687 0.80655 4.42755 0.301036 5.70034 0.301036C6.97313 0.301036 8.19381 0.80655 9.09394 1.70641L10.5003 3.11161L11.9067 1.70641C12.3495 1.24796 12.8792 0.882287 13.4648 0.630724C14.0504 0.379161 14.6803 0.246747 15.3176 0.241209C15.955 0.235671 16.587 0.357119 17.1769 0.598467C17.7668 0.839815 18.3028 1.19623 18.7534 1.64691C19.2041 2.0976 19.5605 2.63353 19.8019 3.22343C20.0432 3.81333 20.1647 4.4454 20.1591 5.08274C20.1536 5.72008 20.0212 6.34993 19.7696 6.93555C19.5181 7.52117 19.1524 8.05083 18.6939 8.49361L10.5003 16.6884L2.30674 8.49361C1.40688 7.59348 0.901367 6.3728 0.901367 5.10001C0.901367 3.82722 1.40688 2.60654 2.30674 1.70641Z" fill="currentColor"/>
</svg>
