<svg width="21" height="21" viewBox="0 0 21 21" fill="none" xmlns="http://www.w3.org/2000/svg">
<path fill-rule="evenodd" clip-rule="evenodd" d="M1.964 1.964C0.5 3.43 0.5 5.786 0.5 10.5C0.5 15.214 0.5 17.571 1.964 19.035C3.43 20.5 5.786 20.5 10.5 20.5C15.214 20.5 17.571 20.5 19.035 19.035C20.5 17.572 20.5 15.214 20.5 10.5C20.5 5.786 20.5 3.429 19.035 1.964C17.572 0.5 15.214 0.5 10.5 0.5C5.786 0.5 3.429 0.5 1.964 1.964ZM13.5 10.5C14.052 10.5 14.5 9.828 14.5 9C14.5 8.172 14.052 7.5 13.5 7.5C12.948 7.5 12.5 8.172 12.5 9C12.5 9.828 12.948 10.5 13.5 10.5ZM8.5 9C8.5 9.828 8.052 10.5 7.5 10.5C6.948 10.5 6.5 9.828 6.5 9C6.5 8.172 6.948 7.5 7.5 7.5C8.052 7.5 8.5 8.172 8.5 9ZM6.897 14.053C6.95572 13.9738 7.02948 13.907 7.11405 13.8564C7.19862 13.8057 7.29235 13.7722 7.38987 13.7578C7.48739 13.7434 7.58679 13.7484 7.68239 13.7725C7.77799 13.7965 7.8679 13.8392 7.947 13.898C8.675 14.438 9.554 14.75 10.5 14.75C11.446 14.75 12.325 14.437 13.053 13.898C13.1319 13.8366 13.2222 13.7916 13.3187 13.7657C13.4151 13.7397 13.5158 13.7333 13.6148 13.7468C13.7138 13.7603 13.8092 13.7934 13.8952 13.8442C13.9812 13.8951 14.0562 13.9626 14.1158 14.0428C14.1753 14.123 14.2183 14.2143 14.242 14.3114C14.2658 14.4084 14.27 14.5092 14.2543 14.6079C14.2385 14.7066 14.2033 14.8011 14.1505 14.886C14.0977 14.9708 14.0285 15.0443 13.947 15.102C12.9516 15.8459 11.7426 16.2485 10.5 16.25C9.25736 16.2485 8.04841 15.8459 7.053 15.102C6.89323 14.9836 6.78704 14.8065 6.75778 14.6098C6.72853 14.4131 6.7786 14.2128 6.897 14.053Z" fill="currentColor"/>
</svg>
