<svg width="21" height="20" viewBox="0 0 21 20" fill="none" xmlns="http://www.w3.org/2000/svg">
<path d="M17.4692 15.6425C17.4692 15.6425 16.5036 16.5908 16.267 16.8688C15.8816 17.2802 15.4274 17.4744 14.8321 17.4744C14.7748 17.4744 14.7137 17.4744 14.6565 17.4706C13.523 17.3982 12.4697 16.9564 11.6797 16.5794C9.5196 15.5358 7.62284 14.0543 6.04666 12.1766C4.74527 10.6113 3.87513 9.16399 3.29885 7.61008C2.94392 6.66173 2.81416 5.92286 2.87141 5.22588C2.90957 4.78027 3.08131 4.41084 3.39807 4.09472L4.69947 2.79599C4.88647 2.62079 5.08493 2.52557 5.27957 2.52557C5.52 2.52557 5.71464 2.6703 5.83676 2.79218C5.84058 2.79599 5.84439 2.79979 5.84821 2.8036C6.08101 3.02069 6.30236 3.2454 6.53517 3.48535C6.65347 3.60722 6.7756 3.7291 6.89773 3.85478L7.93961 4.89453C8.34415 5.29825 8.34415 5.67149 7.93961 6.07521C7.82893 6.18566 7.72207 6.2961 7.61139 6.40275C7.29082 6.73029 7.54265 6.47897 7.21062 6.77604C7.20299 6.78366 7.19535 6.78747 7.19154 6.79508C6.86333 7.12262 6.92439 7.44255 6.99308 7.65964C6.9969 7.67106 7.00072 7.68249 7.00453 7.69392C7.2755 8.349 7.65714 8.96599 8.23724 9.70106L8.24105 9.70487C9.29438 10.9998 10.405 12.0091 11.63 12.7822C11.7865 12.8813 11.9468 12.9612 12.0994 13.0374C12.2368 13.106 12.3666 13.1707 12.4773 13.2393C12.4925 13.2469 12.5078 13.2583 12.5231 13.2659C12.6528 13.3307 12.775 13.3611 12.9009 13.3611C13.2177 13.3611 13.4161 13.1631 13.481 13.0983L14.2291 12.3518C14.3588 12.2223 14.5649 12.0662 14.8053 12.0662C15.042 12.0662 15.2366 12.2147 15.3549 12.3442C15.3587 12.348 15.3587 12.348 15.3625 12.3518L17.4654 14.4504C17.8585 14.8388 17.4692 15.6425 17.4692 15.6425Z" fill="#FF7968"/>
</svg>
